<svg width="165" height="160" viewBox="0 0 165 160" fill="none" xmlns="http://www.w3.org/2000/svg">
<path d="M159.72 149.28H155.76V8.96H159.72C162.69 8.96 165 7.36 165 4.48C165 1.6 162.69 0 159.72 0H5.28C2.475 0 0 1.6 0 4.48C0 7.36 2.475 8.96 5.28 8.96H7.425V149.28H5.28C2.475 149.28 0 151.84 0 154.72C0 157.6 2.475 160 5.28 160H159.72C162.69 160 165 157.6 165 154.72C165 151.84 162.69 149.28 159.72 149.28ZM130.185 8.96H144.87V55.84H130.185V8.96ZM36.63 149.28H20.13V8.96H36.63V149.28ZM62.37 149.28H49.5V8.96H62.37V149.28ZM89.76 149.28H75.24V8.96H89.76V149.28ZM117.315 149.28H104.445V8.96H117.315V149.28ZM144.87 149.28H130.185V104.16H144.87V149.28ZM144.87 92H130.185V91.84L135.135 80.64C132.66 79.68 130.845 77.28 130.845 74.56C130.845 70.88 133.815 68 137.61 68C141.24 68 144.375 70.88 144.375 74.56C144.375 77.12 142.725 79.36 140.415 80.48L144.87 90.4L145.53 92H144.87Z" fill="black"/>
</svg>
